<?xml version="1.0" encoding="utf-8"?>
<!-- Generator: Adobe Illustrator 23.1.0, SVG Export Plug-In . SVG Version: 6.00 Build 0)  -->
<svg version="1.1" id="Layer_1" xmlns="http://www.w3.org/2000/svg" xmlns:xlink="http://www.w3.org/1999/xlink" x="0px" y="0px"
	 viewBox="0 0 100 84.8" style="enable-background:new 0 0 100 84.8;" xml:space="preserve">
<style type="text/css">
	.st0{fill:#FFFFFF;}
</style>
<path class="st0" d="M91,36.5c0,4.4-3.6,8-8,8h-1c-1.1,0-2,0.9-2,2v2c0,4.4-3.6,8-8,8h-7.4l1.6-1.2c6.4-5.3,9.2-12.2,7.6-18.7
	c0.4,0,0.8-0.1,1.2-0.1C75,36.5,91,36.5,91,36.5z M26.2,36.5c-0.4,0-0.8-0.1-1.2-0.1H9c0,4.4,3.6,8,8,8h1c1.1,0,2,0.9,2,2v2
	c0,4.4,3.6,8,8,8h7.4l-1.5-1.2C27.3,50,24.6,43.1,26.2,36.5z M69.7,36.7c-1.3-4-4.8-7-8.4-7.2c-3.8-0.2-7.5,1.6-9.7,4.7
	c-0.4,0.5-1,0.8-1.6,0.8s-1.2-0.3-1.6-0.8c-2.1-2.9-5.5-4.7-9-4.7c-0.2,0-0.4,0-0.6,0c-3.8,0.2-7.2,3.2-8.5,7.2
	c-1.7,5.3,0.5,10.9,6,15.4L50,62.9l13.7-10.8C69.2,47.6,71.4,42,69.7,36.7z M50,18.5c1.1,0,2-0.9,2-2v-8c0-1.1-0.9-2-2-2s-2,0.9-2,2
	v8C48,17.6,48.9,18.5,50,18.5z M60.9,20.1c0.3,0.2,0.7,0.3,1.1,0.3c0.6,0,1.3-0.3,1.7-0.9l4-6c0.6-0.9,0.4-2.2-0.6-2.8
	c-0.9-0.6-2.2-0.4-2.8,0.6l-4,6C59.7,18.3,60,19.5,60.9,20.1z M36.3,19.6c0.4,0.6,1,0.9,1.7,0.9c0.4,0,0.8-0.1,1.1-0.3
	c0.9-0.6,1.2-1.9,0.6-2.8l-4-6c-0.6-0.9-1.9-1.2-2.8-0.6c-0.9,0.6-1.2,1.9-0.6,2.8L36.3,19.6z"/>
<text transform="matrix(1 0 0 1 0 105.6939)" style="font-family:'Arial-BoldMT'; font-size:5px;">Created by IconMark</text>
<text transform="matrix(1 0 0 1 0 110.6939)" style="font-family:'Arial-BoldMT'; font-size:5px;">from the Noun Project</text>
</svg>
